<svg width="20" height="20" viewBox="0 0 20 20" fill="none" xmlns="http://www.w3.org/2000/svg">
<path d="M18.9436 18.6291C19.527 18.0406 19.5225 17.0905 18.9337 16.5074L13.4129 11.0401C12.8241 10.457 12.8196 9.50692 13.403 8.91835L18.8675 3.40452C19.4506 2.81613 19.4464 1.86644 18.858 1.28328L18.6292 1.05641C18.0406 0.473046 17.0905 0.477466 16.5074 1.06628L11.0439 6.58329C10.4609 7.17195 9.51114 7.17655 8.92252 6.59357L3.4023 1.1263C2.8157 0.545324 1.8699 0.547604 1.2861 1.1314L1.06537 1.35213C0.477747 1.93975 0.479857 2.89313 1.07007 3.47814L6.59012 8.94951C7.17831 9.53252 7.18273 10.4819 6.59998 11.0703L1.12619 16.5977C0.54527 17.1843 0.547571 18.1301 1.13134 18.7138L1.35219 18.9347C1.93979 19.5223 2.89312 19.5202 3.47814 18.93L8.95482 13.4053C9.53804 12.8169 10.4878 12.8128 11.0761 13.396L16.5955 18.8673C17.1838 19.4505 18.1336 19.4463 18.7168 18.8579L18.9436 18.6291Z" fill="black"/>
</svg>
